<svg width="228" height="62" viewBox="0 0 228 62" fill="none" xmlns="http://www.w3.org/2000/svg">
<path d="M18 38.0302L31.7138 31.9343L39.6073 36.5061L41.2019 51.5045L31.4747 51.4247L32.9098 40.9979L31.2355 40.0349L23.0231 46.4517L18 38.0302Z" fill="#F2CEBB"/>
<path d="M40.4849 35.8638L52.6043 44.767L57.3881 36.1847L47.6605 32.2546V30.3296L57.3881 26.3193L52.6043 17.8174L40.4849 26.7203V35.8638Z" fill="#973D0D"/>
<path d="M39.6073 25.9986L41.2019 11L31.4747 11.1604L32.9098 21.5873L31.2355 22.5497L22.9433 16.1332L18 24.4747L31.7138 30.5704L39.6073 25.9986Z" fill="#ED702D"/>
<path d="M89.8401 29.4549V43.5067H95.0752V25.5991H87.4512V29.4549H89.8401Z" fill="white"/>
<path d="M89.6762 23.0829C90.1562 23.5838 90.8869 23.8344 91.8684 23.8344C92.8505 23.8344 93.5698 23.5838 94.0276 23.0829C94.5081 22.5598 94.7475 21.9063 94.7475 21.1222C94.7475 20.3161 94.5081 19.6625 94.0276 19.1615C93.5698 18.6387 92.8505 18.3772 91.8684 18.3772C90.8869 18.3772 90.1562 18.6387 89.6762 19.1615C89.2184 19.6625 88.9893 20.3161 88.9893 21.1222C88.9893 21.9063 89.2184 22.5598 89.6762 23.0829Z" fill="white"/>
<path d="M71.6153 43.1142C73.0984 43.7895 74.9198 44.1274 77.0791 44.1274C79.108 44.1274 80.8527 43.8116 82.3147 43.1795C83.7762 42.548 84.8993 41.6655 85.6846 40.533C86.4921 39.3779 86.8953 38.0382 86.8953 36.5133C86.8953 35.032 86.5142 33.7793 85.7505 32.7553C85.0085 31.7097 83.9729 30.8927 82.6417 30.3047C81.311 29.6946 79.7734 29.3133 78.0281 29.161L76.1959 28.9976C75.1052 28.9102 74.3199 28.6164 73.84 28.1151C73.36 27.6142 73.12 27.0259 73.12 26.3507C73.12 25.8276 73.2514 25.3485 73.5124 24.9128C73.7746 24.4552 74.1669 24.0959 74.6907 23.8343C75.236 23.573 75.9014 23.4423 76.6867 23.4423C77.5152 23.4423 78.2027 23.5946 78.7481 23.8998C78.8681 23.9643 78.9821 24.0333 79.0891 24.1064L79.1151 24.1245C79.155 24.1522 79.1945 24.1808 79.2329 24.2098C79.5642 24.4626 79.828 24.7623 80.0241 25.1088C80.3074 25.5882 80.45 26.1218 80.45 26.7101H85.6846C85.6846 25.1415 85.3246 23.7799 84.6053 22.6254C83.8853 21.449 82.8492 20.5449 81.497 19.913C80.1657 19.2594 78.5627 18.9326 76.6867 18.9326C74.8977 18.9326 73.3492 19.2378 72.0402 19.8477C70.7316 20.436 69.7064 21.2856 68.9648 22.3965C68.2444 23.5076 67.8844 24.8258 67.8844 26.3507C67.8844 28.4637 68.594 30.1629 70.0117 31.4484C71.4294 32.7337 73.3276 33.4744 75.7052 33.6704L77.505 33.8338C78.9659 33.9645 80.0241 34.2587 80.6787 34.716C81.3327 35.1517 81.6602 35.7508 81.6602 36.5133C81.6602 36.8638 81.6029 37.1924 81.4878 37.4995C81.4024 37.7273 81.2856 37.9432 81.137 38.1472C80.7873 38.605 80.2749 38.9639 79.5988 39.2257C78.9226 39.4869 78.0827 39.6176 77.0791 39.6176C75.9667 39.6176 75.0614 39.4654 74.3637 39.1604C73.6654 38.8333 73.1422 38.4085 72.7925 37.886C72.4655 37.3629 72.3023 36.7967 72.3023 36.1865H67.0996C67.0996 37.7332 67.4812 39.1059 68.2444 40.3042C69.0081 41.4803 70.1317 42.4174 71.6153 43.1142Z" fill="white"/>
<path d="M106.756 43.7349C104.946 43.7349 103.484 43.5174 102.372 43.0812C101.259 42.624 100.441 41.8727 99.9175 40.8271C99.4159 39.7595 99.1651 38.3215 99.1651 36.5132V29.4222H96.4492V25.599H99.1651V20.7627H104.04V25.599H109.276V29.4222H104.04V36.7095C104.04 37.5591 104.259 38.2125 104.695 38.6697C105.153 39.1058 105.796 39.3233 106.625 39.3233H109.276V43.7349H106.756Z" fill="white"/>
<path fill-rule="evenodd" clip-rule="evenodd" d="M115.579 43.343C116.757 43.8661 118.11 44.1273 119.637 44.1273C121.141 44.1273 122.472 43.8661 123.629 43.343C124.785 42.82 125.744 42.0902 126.508 41.1537C127.271 40.2167 127.784 39.1495 128.045 37.9512H123.236C123.018 38.4959 122.603 38.9531 121.992 39.3234C121.382 39.6942 120.596 39.8793 119.637 39.8793C119.042 39.8793 118.511 39.8091 118.043 39.6683C117.686 39.5614 117.367 39.414 117.084 39.2257C116.43 38.7901 115.95 38.1796 115.645 37.3957C115.56 37.1724 115.487 36.9387 115.426 36.6953C115.364 36.4488 115.314 36.1922 115.276 35.9252H128.373V34.1605C128.373 32.5266 128.024 31.0235 127.326 29.6511C126.628 28.2566 125.613 27.1347 124.283 26.2851C122.974 25.4137 121.36 24.978 119.44 24.978C117.978 24.978 116.669 25.2395 115.513 25.7624C114.38 26.2633 113.431 26.9495 112.667 27.8209C111.904 28.6923 111.315 29.6837 110.9 30.7948C110.507 31.8838 110.311 33.0275 110.311 34.2258V34.8793C110.311 36.0341 110.507 37.1668 110.9 38.2778C111.315 39.3671 111.904 40.3581 112.667 41.2514C113.452 42.1232 114.422 42.82 115.579 43.343ZM115.366 32.694C115.381 32.6248 115.396 32.5566 115.413 32.4895C115.458 32.3048 115.51 32.1277 115.57 31.9586C115.603 31.8623 115.639 31.7683 115.677 31.677C116.004 30.8709 116.484 30.261 117.117 29.8471C117.354 29.6924 117.61 29.5666 117.885 29.4698C118.347 29.3075 118.866 29.2262 119.44 29.2262C120.335 29.2262 121.076 29.4333 121.665 29.8471C122.276 30.2391 122.734 30.8164 123.039 31.5789C123.064 31.6404 123.087 31.7031 123.11 31.7665C123.146 31.8675 123.18 31.9712 123.211 32.0775C123.257 32.2356 123.298 32.3993 123.333 32.5685C123.359 32.6932 123.381 32.8208 123.401 32.9515H115.316C115.331 32.8642 115.348 32.7784 115.366 32.694Z" fill="white"/>
<path d="M130.533 43.5067V25.5991H134.689V30.1093C134.745 29.8412 134.809 29.5839 134.881 29.3371C134.943 29.1292 135.009 28.9288 135.081 28.7361C135.54 27.5161 136.227 26.6013 137.143 25.9911C138.059 25.3594 139.182 25.0437 140.513 25.0437H140.742C142.095 25.0437 143.218 25.3594 144.112 25.9911C145.028 26.6013 145.716 27.5161 146.174 28.7361L146.21 28.8283L146.241 28.9124C146.261 28.853 146.283 28.7943 146.304 28.7361C146.784 27.5161 147.483 26.6013 148.399 25.9911C149.315 25.3594 150.439 25.0437 151.769 25.0437H151.998C153.35 25.0437 154.485 25.3594 155.401 25.9911C156.339 26.6013 157.048 27.5161 157.528 28.7361C158.007 29.9562 158.248 31.4812 158.248 33.3111V43.5067H153.012V33.017C153.012 32.0366 152.751 31.2415 152.227 30.6316C151.725 30.0214 151.006 29.7165 150.068 29.7165C149.13 29.7165 148.388 30.0325 147.843 30.6642C147.297 31.2741 147.024 32.091 147.024 33.1151V43.5067H141.756V33.017C141.756 32.0366 141.495 31.2415 140.971 30.6316C140.469 30.0214 139.76 29.7165 138.845 29.7165C137.884 29.7165 137.132 30.0325 136.587 30.6642C136.041 31.2741 135.768 32.091 135.768 33.1151V43.5067H130.533Z" fill="white"/>
<path fill-rule="evenodd" clip-rule="evenodd" d="M172.232 40.056V43.5067H176.387V32.5268C176.387 30.871 176.06 29.5204 175.406 28.4746C174.751 27.4072 173.792 26.612 172.527 26.0893C171.283 25.5664 169.745 25.3049 167.913 25.3049C167.516 25.3049 167.101 25.3091 166.669 25.3178C166.414 25.3231 166.152 25.3297 165.884 25.3375C165.164 25.3594 164.466 25.392 163.79 25.4357L163.273 25.4704C163.008 25.4888 162.759 25.507 162.524 25.5254C162.348 25.5391 162.181 25.5528 162.023 25.5664V29.978C162.699 29.9343 163.452 29.8907 164.281 29.8472C164.513 29.8351 164.743 29.8238 164.971 29.8133C165.3 29.7981 165.625 29.7849 165.947 29.7733C166.201 29.7641 166.453 29.756 166.702 29.7491C167.487 29.7272 168.12 29.7165 168.6 29.7165C169.56 29.7165 170.258 29.9451 170.694 30.4027C171.13 30.8602 171.348 31.5464 171.348 32.4615V32.5268H168.109C166.517 32.5268 165.11 32.7338 163.888 33.1477C162.667 33.5397 161.717 34.1607 161.042 35.0102C160.365 35.8382 160.027 36.9057 160.027 38.2126C160.027 39.4109 160.3 40.4457 160.845 41.3174C161.39 42.167 162.143 42.8201 163.103 43.2779C164.085 43.735 165.219 43.9639 166.506 43.9639C167.749 43.9639 168.796 43.735 169.647 43.2779C170.52 42.8201 171.196 42.167 171.676 41.3174C171.76 41.1738 171.839 41.0254 171.913 40.871C172.016 40.6529 172.109 40.4235 172.19 40.1828L172.232 40.056ZM171.348 36.873V35.4352H168.076C167.16 35.4352 166.452 35.6638 165.95 36.1213C165.47 36.557 165.229 37.1561 165.229 37.9184C165.229 38.2774 165.289 38.604 165.409 38.8976C165.529 39.1923 165.709 39.4541 165.95 39.6835C166.452 40.1191 167.16 40.3366 168.076 40.3366C168.251 40.3366 168.419 40.328 168.582 40.3113C168.715 40.2972 168.844 40.2773 168.969 40.2519C169.209 40.2033 169.436 40.1337 169.647 40.0425C170.127 39.8249 170.52 39.4654 170.825 38.964C171.13 38.4631 171.305 37.7662 171.348 36.873Z" fill="white"/>
<path d="M179.521 43.5066V25.599H183.676V31.5097C183.875 29.8224 184.377 28.4619 185.182 27.4289C186.272 26.0565 187.842 25.3704 189.893 25.3704H190.58V29.8798H189.271C187.832 29.8798 186.719 30.2718 185.934 31.0561C185.149 31.8186 184.756 32.9297 184.756 34.3892V43.5066H179.521Z" fill="white"/>
<path d="M197.219 35.1408H198.954L204.614 43.5065H210.504L203.326 33.2325L209.228 25.5989H203.731L197.219 34.1136V19.6516H191.984V43.5065H197.219V35.1408Z" fill="white"/>
</svg>
